<svg xmlns="http://www.w3.org/2000/svg" viewBox="0 0 64 64" width="64" height="64">
  <!-- Background circle -->
  <circle cx="32" cy="32" r="30" fill="#2563eb" stroke="#1d4ed8" stroke-width="4"/>
  
  <!-- AI Brain symbol -->
  <path d="M20 24 Q20 16, 28 16 Q36 16, 44 24 Q44 32, 36 40 Q28 40, 20 32 Z" fill="#fff" opacity="0.9"/>
  
  <!-- Neural network dots -->
  <circle cx="26" cy="22" r="2" fill="#fbbf24"/>
  <circle cx="32" cy="20" r="2" fill="#fbbf24"/>
  <circle cx="38" cy="22" r="2" fill="#fbbf24"/>
  <circle cx="24" cy="28" r="2" fill="#10b981"/>
  <circle cx="32" cy="26" r="2" fill="#10b981"/>
  <circle cx="40" cy="28" r="2" fill="#10b981"/>
  <circle cx="28" cy="34" r="2" fill="#ef4444"/>
  <circle cx="36" cy="34" r="2" fill="#ef4444"/>
  
  <!-- Neural network connections -->
  <g stroke="#6b7280" stroke-width="1.5" opacity="0.6">
    <line x1="26" y1="22" x2="24" y2="28"/>
    <line x1="32" y1="20" x2="32" y2="26"/>
    <line x1="38" y1="22" x2="40" y2="28"/>
    <line x1="24" y1="28" x2="28" y2="34"/>
    <line x1="32" y1="26" x2="28" y2="34"/>
    <line x1="32" y1="26" x2="36" y2="34"/>
    <line x1="40" y1="28" x2="36" y2="34"/>
  </g>
  
  <!-- Science atom symbol -->
  <g transform="translate(32, 48)">
    <circle cx="0" cy="0" r="3" fill="#fff"/>
    <ellipse cx="0" cy="0" rx="8" ry="3" fill="none" stroke="#fff" stroke-width="1.5"/>
    <ellipse cx="0" cy="0" rx="8" ry="3" fill="none" stroke="#fff" stroke-width="1.5" transform="rotate(60)"/>
    <ellipse cx="0" cy="0" rx="8" ry="3" fill="none" stroke="#fff" stroke-width="1.5" transform="rotate(-60)"/>
  </g>
</svg>
